<?xml version="1.0" encoding="UTF-8"?>
<svg id="Layer_2" data-name="Layer 2" xmlns="http://www.w3.org/2000/svg" viewBox="0 0 242.95 88.19">
  <defs>
    <style>
      .cls-1 {
        fill: #87565b;
      }

      .cls-2 {
        fill: #4c1711;
      }
    </style>
  </defs>
  <g id="Layer_1-2" data-name="Layer 1">
    <g>
      <g>
        <path class="cls-1" d="M87.25,87.85v-20.35c0-2.04-.75-3.8-2.24-5.29-1.45-1.45-3.21-2.17-5.29-2.17s-3.8.75-5.29,2.24c-.68.68-1.22,1.48-1.63,2.41-.41.93-.61,1.87-.61,2.82v20.35h-5.9v-33.11h5.9v2.78c.86-1.04,1.99-1.9,3.39-2.58,1.4-.68,2.78-1.02,4.14-1.02,1.81,0,3.54.35,5.19,1.05,1.65.7,3.11,1.69,4.38,2.95,1.22,1.22,2.18,2.66,2.88,4.31.7,1.65,1.05,3.4,1.05,5.26v20.35h-5.97Z"/>
        <path class="cls-1" d="M109.91,73.47c0,1.09.4,2.22,1.19,3.39.79,1.18,1.71,2.17,2.75,2.98,1.9,1.49,4.11,2.24,6.65,2.24,4.02,0,7.3-1.94,9.84-5.83l5.16,3.05c-1.76,2.85-3.94,5.04-6.51,6.58-2.58,1.54-5.4,2.31-8.48,2.31-2.31,0-4.5-.44-6.58-1.32-2.08-.88-3.91-2.11-5.5-3.7-1.58-1.58-2.82-3.42-3.7-5.5-.88-2.08-1.32-4.27-1.32-6.58s.44-4.51,1.32-6.62c.88-2.1,2.11-3.95,3.7-5.53,1.54-1.58,3.36-2.8,5.46-3.66,2.1-.86,4.31-1.29,6.61-1.29s4.51.43,6.61,1.29c2.1.86,3.92,2.08,5.46,3.66,3.35,3.44,5.02,7.42,5.02,11.94,0,.81-.07,1.67-.2,2.58h-27.48ZM115.27,60.78c-1.63.81-2.93,1.89-3.9,3.22-.97,1.33-1.46,2.75-1.46,4.24h21.17c0-1.49-.49-2.91-1.46-4.24-.97-1.33-2.27-2.41-3.9-3.22-1.63-.81-3.37-1.22-5.22-1.22s-3.6.41-5.22,1.22Z"/>
        <path class="cls-1" d="M162.49,71.3l10.11,16.55h-7.06l-6.51-10.79-6.58,10.79h-6.92l9.97-16.55-10.45-17.37h6.92l7.06,11.6,6.99-11.6h6.99l-10.52,17.37Z"/>
        <path class="cls-1" d="M198.99,60.44c-1.09-.5-2.06-.75-2.92-.75-1.81,0-3.3.63-4.48,1.9-1.27,1.36-1.9,2.92-1.9,4.68v21.57h-5.83v-21.57c0-2.44.62-4.68,1.87-6.72,1.24-2.04,2.95-3.62,5.12-4.75,1.63-.77,3.37-1.15,5.22-1.15,1.49,0,2.92.27,4.27.81,1.36.54,2.78,1.42,4.27,2.65l-5.63,3.32Z"/>
        <path class="cls-1" d="M236.85,87.85v-5.16c-1.45,1.67-3.12,3.01-5.02,4-1.9,1-3.91,1.49-6.04,1.49-2.35,0-4.56-.43-6.61-1.29-2.06-.86-3.88-2.08-5.46-3.66-1.58-1.54-2.82-3.36-3.7-5.46-.88-2.1-1.32-4.31-1.32-6.62s.44-4.51,1.32-6.61c.88-2.1,2.11-3.95,3.7-5.53,1.58-1.58,3.4-2.8,5.46-3.66,2.06-.86,4.26-1.29,6.61-1.29,2.17,0,4.22.45,6.14,1.36,1.92.91,3.56,2.17,4.92,3.8v-4.48h6.11v33.11h-6.11ZM221.48,60.95c-1.38.57-2.57,1.35-3.56,2.34-1,1-1.78,2.18-2.34,3.56-.57,1.38-.85,2.82-.85,4.31s.28,2.92.85,4.27c.57,1.36,1.35,2.53,2.34,3.53.99,1,2.18,1.78,3.56,2.34,1.38.57,2.82.85,4.31.85s2.92-.28,4.27-.85c1.36-.56,2.53-1.34,3.53-2.34s1.77-2.17,2.34-3.53c.57-1.36.85-2.78.85-4.27s-.28-2.93-.85-4.31c-.57-1.38-1.35-2.57-2.34-3.56-1-1-2.17-1.78-3.53-2.34-1.36-.57-2.78-.85-4.27-.85s-2.93.28-4.31.85Z"/>
      </g>
      <path class="cls-2" d="M21.21,87.76c7.72-24.23,16.65-50.75,24.93-74.8,1-2.95,2.71-7.66,3.54-10.65,1.16-3.68,6.57-2.73,6.42,1.12.1,11.86.26,28.37.22,40.04,0,11.78.04,28.42-.12,40.04.08,3.43-4.15,5.56-6.86,3.53-8.25-5.89-27.68-18.96-35.62-24.73,0,0-11.82-8.32-11.82-8.32-2.01-1.39-2.5-4.15-1.09-6.14.82-1.17,2.13-1.81,3.45-1.86l21.26-.69c27.11-.68,58.06-1.4,85.1-1.55,7.1-.03,14.19-.15,21.29-.08,12.16.06,30.54.04,42.59.34,1.67,1.38-170.13,6.37-170.07,6.85,0,0,.25-.85.25-.85l47.42,33.09-.72.37,1.07-80.07.7.12c-1.2,3.57-2.59,7.05-3.88,10.58-2.49,6.66-9.24,24.75-11.82,31.65l-15.76,42.2c-.05.13-.19.19-.32.15-.13-.05-.19-.19-.15-.32h0Z"/>
    </g>
  </g>
</svg>