<?xml version="1.0" encoding="UTF-8"?>
<svg id="Layer_2" xmlns="http://www.w3.org/2000/svg" version="1.1" viewBox="0 0 254 102.3">
  <!-- Generator: Adobe Illustrator 29.5.1, SVG Export Plug-In . SVG Version: 2.1.0 Build 141)  -->
  <defs>
    <style>
      .st0 {
        fill: #fff;
      }

      .st1 {
        isolation: isolate;
      }
    </style>
  </defs>
  <g id="Layer_1-2">
    <g>
      <g class="st1">
        <g class="st1">
          <path class="st0" d="M94.9,87.8v-20.4c0-2-.7-3.8-2.2-5.3-1.4-1.4-3.2-2.2-5.3-2.2s-3.8.7-5.3,2.2c-.7.7-1.2,1.5-1.6,2.4s-.6,1.9-.6,2.8v20.4h-5.9v-33.1h5.9v2.8c.9-1,2-1.9,3.4-2.6,1.4-.7,2.8-1,4.1-1s3.5.4,5.2,1.1,3.1,1.7,4.4,3c1.2,1.2,2.2,2.7,2.9,4.3.7,1.7,1.1,3.4,1.1,5.3v20.4h-6Z"/>
        </g>
        <g class="st1">
          <path class="st0" d="M117.6,73.5c0,1.1.4,2.2,1.2,3.4.8,1.2,1.7,2.2,2.7,3,1.9,1.5,4.1,2.2,6.6,2.2,4,0,7.3-1.9,9.8-5.8l5.2,3.1c-1.8,2.8-3.9,5-6.5,6.6-2.6,1.5-5.4,2.3-8.5,2.3s-4.5-.4-6.6-1.3c-2.1-.9-3.9-2.1-5.5-3.7-1.6-1.6-2.8-3.4-3.7-5.5s-1.3-4.3-1.3-6.6.4-4.5,1.3-6.6c.9-2.1,2.1-3.9,3.7-5.5,1.5-1.6,3.4-2.8,5.5-3.7,2.1-.9,4.3-1.3,6.6-1.3s4.5.4,6.6,1.3c2.1.9,3.9,2.1,5.5,3.7,3.3,3.4,5,7.4,5,11.9s0,1.7-.2,2.6h-27.5ZM122.9,60.8c-1.6.8-2.9,1.9-3.9,3.2-1,1.3-1.5,2.7-1.5,4.2h21.2c0-1.5-.5-2.9-1.5-4.2-1-1.3-2.3-2.4-3.9-3.2-1.6-.8-3.4-1.2-5.2-1.2s-3.6.4-5.2,1.2Z"/>
        </g>
        <g class="st1">
          <path class="st0" d="M170.1,71.3l10.1,16.6h-7.1l-6.5-10.8-6.6,10.8h-6.9l10-16.6-10.4-17.4h6.9l7.1,11.6,7-11.6h7l-10.5,17.4Z"/>
        </g>
        <g class="st1">
          <path class="st0" d="M206.7,60.4c-1.1-.5-2.1-.7-2.9-.7-1.8,0-3.3.6-4.5,1.9-1.3,1.4-1.9,2.9-1.9,4.7v21.6h-5.8v-21.6c0-2.4.6-4.7,1.9-6.7,1.2-2,3-3.6,5.1-4.7,1.6-.8,3.4-1.2,5.2-1.2s2.9.3,4.3.8c1.4.5,2.8,1.4,4.3,2.6l-5.6,3.3Z"/>
        </g>
        <g class="st1">
          <path class="st0" d="M244.5,87.8v-5.2c-1.4,1.7-3.1,3-5,4-1.9,1-3.9,1.5-6,1.5s-4.6-.4-6.6-1.3c-2.1-.9-3.9-2.1-5.5-3.7-1.6-1.5-2.8-3.4-3.7-5.5-.9-2.1-1.3-4.3-1.3-6.6s.4-4.5,1.3-6.6c.9-2.1,2.1-3.9,3.7-5.5,1.6-1.6,3.4-2.8,5.5-3.7,2.1-.9,4.3-1.3,6.6-1.3s4.2.5,6.1,1.4c1.9.9,3.6,2.2,4.9,3.8v-4.5h6.1v33.1h-6.1ZM229.1,61c-1.4.6-2.6,1.3-3.6,2.3-1,1-1.8,2.2-2.3,3.6-.6,1.4-.8,2.8-.8,4.3s.3,2.9.8,4.3c.6,1.4,1.3,2.5,2.3,3.5,1,1,2.2,1.8,3.6,2.3,1.4.6,2.8.8,4.3.8s2.9-.3,4.3-.8c1.4-.6,2.5-1.3,3.5-2.3s1.8-2.2,2.3-3.5c.6-1.4.8-2.8.8-4.3s-.3-2.9-.8-4.3-1.3-2.6-2.3-3.6c-1-1-2.2-1.8-3.5-2.3-1.4-.6-2.8-.8-4.3-.8s-2.9.3-4.3.8Z"/>
        </g>
      </g>
      <path class="st0" d="M28.9,87.8c7.7-24.2,16.6-50.8,24.9-74.8,1-2.9,2.7-7.7,3.5-10.6,1.2-3.7,6.6-2.7,6.4,1.1,0,11.9.3,28.4.2,40,0,11.8,0,28.4-.1,40,0,3.4-4.2,5.6-6.9,3.5-8.2-5.9-27.7-19-35.6-24.7l-11.8-8.3c-2-1.4-2.5-4.2-1.1-6.1.8-1.2,2.1-1.8,3.4-1.9l21.3-.7c27.1-.7,58.1-1.4,85.1-1.5,7.1,0,14.2-.2,21.3,0,12.2,0,30.5,0,42.6.3,1.7,1.4-170.1,6.4-170.1,6.8l.2-.8,47.4,33.1-.7.4,1.1-80.1h.7c-1.2,3.7-2.6,7.2-3.9,10.7-2.5,6.7-9.2,24.8-11.8,31.6l-15.8,42.2c0,.1-.2.2-.3.2-.1,0-.2-.2-.1-.3h0Z"/>
    </g>
  </g>
</svg>