<?xml version="1.0" encoding="UTF-8"?>
<svg id="Layer_2" data-name="Layer 2" xmlns="http://www.w3.org/2000/svg" viewBox="0 0 155.47 151.85">
  <defs>
    <style>
      .cls-1 {
        fill: #fff;
      }
    </style>
  </defs>
  <g id="Layer_1-2" data-name="Layer 1">
    <path class="cls-1" d="M35.88,150.21c12.8-45.3,28.03-91.45,43.2-136.01.86-2.44,2.13-6.48,2.93-8.95,2.92-8.35,15.08-6.2,15,2.61.36,43.64.38,91.75-.5,135.3-.08,4.87-4.09,8.76-8.96,8.69-1.85-.03-3.55-.62-4.96-1.62l-19.94-14.08c-4.99-3.49-14.94-10.61-19.85-14.21-11.54-8.54-28.17-20.2-39.48-28.73-3.52-2.35-4.42-7.2-1.85-10.6,1.4-1.87,3.57-2.88,5.74-2.94l36.9-.75c35.48-.42,75.52-.68,110.84.41.28-.01.54.22.52.51,0,.26-.22.47-.47.49L7.62,87.88l.4-1.4s80.19,55.71,80.19,55.71l-1.5.77c.16-16.86.61-50.75.86-67.6,0,0,.95-67.6.95-67.6,0,0,1.53.27,1.53.27,0,0-1.56,4.5-1.56,4.5-6.78,18.13-18.11,48.38-25,66.79,0,0-26.67,71.24-26.67,71.24-.1.26-.38.39-.64.29-.26-.1-.39-.38-.29-.64h0Z"/>
  </g>
</svg>